# xmcd
#
# Track frame offsets:
#	150
#	17439
#	32469
#	59138
#	75125
#	103593
#	121334
#	140923
#	156687
#	178263
#
# Disc length: 2645 seconds
#
# Revision: 0
# Processed by: cddbd v1.5.2PL0 Copyright (c) Steve Scherf et al.
# Submitted via: EasyCDDAExtractor 16.0.6.1
#
DISCID=840a530a
DTITLE=Dave Thomson - A Long Road Home
DYEAR=1900
DGENRE=
TTITLE0=A Long Road Home
TTITLE1=Big Wheel
TTITLE2=SomeDay
TTITLE3=Goin' Home
TTITLE4=Why Does It Hurt
TTITLE5=Blue Collar Man
TTITLE6=Scars Make Men
TTITLE7=Honky Tonks and Steel Strings
TTITLE8=Where My Heart Is Found
TTITLE9=Finally Home
EXTD=
EXTT0=
EXTT1=
EXTT2=
EXTT3=
EXTT4=
EXTT5=
EXTT6=
EXTT7=
EXTT8=
EXTT9=
PLAYORDER=
